<?xml version="1.0" encoding="UTF-8"?>
<!DOCTYPE svg PUBLIC "-//W3C//DTD SVG 1.1//EN" "http://www.w3.org/Graphics/SVG/1.1/DTD/svg11.dtd">
<!-- Creator: CorelDRAW 2018 (64-Bit) -->
<svg xmlns="http://www.w3.org/2000/svg" xml:space="preserve" width="0.0542874in" height="0.0407165in" version="1.1" style="shape-rendering:geometricPrecision; text-rendering:geometricPrecision; image-rendering:optimizeQuality; fill-rule:evenodd; clip-rule:evenodd"
viewBox="0 0 0.15 0.11"
 xmlns:xlink="http://www.w3.org/1999/xlink"
 enable-background="new 0 0 479.058 479.058">
 <defs>
  <style type="text/css">
   <![CDATA[
    .fil0 {fill:#FEFEFE}
   ]]>
  </style>
 </defs>
 <g id="Layer_x0020_1">
  <metadata id="CorelCorpID_0Corel-Layer"/>
  <g id="_1815644748960">
   <path class="fil0" d="M0.13 0l-0.12 0c-0.01,0 -0.01,0.01 -0.01,0.01l0 0.08c0,0.01 0.01,0.01 0.01,0.01l0.12 0c0.01,0 0.01,-0.01 0.01,-0.01l0 -0.08c0,-0.01 -0.01,-0.01 -0.01,-0.01zm0 0.01c0,0 0,0 0,0l-0.06 0.05 -0.06 -0.05c0,-0 0,-0 0,-0l0.12 0zm0 0.09l-0.12 0c-0,0 -0,-0 -0,-0l0 -0.08 0.06 0.05c0,0 0,0 0,0 0,0 0,-0 0,-0l0.06 -0.05 0 0.08c0,0 -0,0 -0,0z"/>
  </g>
 </g>
</svg>
