<?xml version="1.0" encoding="UTF-8"?>
<!DOCTYPE svg PUBLIC "-//W3C//DTD SVG 1.1//EN" "http://www.w3.org/Graphics/SVG/1.1/DTD/svg11.dtd">
<!-- Creator: CorelDRAW 2018 (64-Bit) -->
<svg xmlns="http://www.w3.org/2000/svg" xml:space="preserve" width="0.0842008in" height="0.0842008in" version="1.1" style="shape-rendering:geometricPrecision; text-rendering:geometricPrecision; image-rendering:optimizeQuality; fill-rule:evenodd; clip-rule:evenodd"
viewBox="0 0 0.39 0.39"
 xmlns:xlink="http://www.w3.org/1999/xlink">
 <defs>
  <style type="text/css">
   <![CDATA[
    .fil0 {fill:#FEFEFE}
   ]]>
  </style>
 </defs>
 <g id="Layer_x0020_1">
  <metadata id="CorelCorpID_0Corel-Layer"/>
  <g id="_1392353384448">
   <g>
    <g>
     <path class="fil0" d="M0.34 0l-0.3 0c-0.03,0 -0.05,0.02 -0.05,0.05l0 0.3c0,0.03 0.02,0.05 0.05,0.05l0.3 0c0.03,0 0.05,-0.02 0.05,-0.05l0 -0.3c0,-0.03 -0.02,-0.05 -0.05,-0.05zm0.02 0.34c0,0.01 -0.01,0.02 -0.02,0.02l-0.09 0 0 -0.12 0.05 0 0.01 -0.05 -0.05 0 0 -0.03c0,-0.01 0.01,-0.02 0.02,-0.02l0.03 0 0 -0.05 -0.03 0c-0.04,0 -0.07,0.03 -0.07,0.07l0 0.03 -0.05 0 0 0.05 0.05 0 0 0.12 -0.16 0c-0.01,0 -0.02,-0.01 -0.02,-0.02l0 -0.3c0,-0.01 0.01,-0.02 0.02,-0.02l0.3 0c0.01,0 0.02,0.01 0.02,0.02l0 0.3z"/>
    </g>
   </g>
   <g>
   </g>
   <g>
   </g>
   <g>
   </g>
   <g>
   </g>
   <g>
   </g>
   <g>
   </g>
   <g>
   </g>
   <g>
   </g>
   <g>
   </g>
   <g>
   </g>
   <g>
   </g>
   <g>
   </g>
   <g>
   </g>
   <g>
   </g>
   <g>
   </g>
  </g>
 </g>
</svg>
