<?xml version="1.0" encoding="UTF-8"?>
<!DOCTYPE svg PUBLIC "-//W3C//DTD SVG 1.1//EN" "http://www.w3.org/Graphics/SVG/1.1/DTD/svg11.dtd">
<!-- Creator: CorelDRAW 2018 (64-Bit) -->
<svg xmlns="http://www.w3.org/2000/svg" xml:space="preserve" width="0.0945039in" height="0.0945039in" version="1.1" style="shape-rendering:geometricPrecision; text-rendering:geometricPrecision; image-rendering:optimizeQuality; fill-rule:evenodd; clip-rule:evenodd"
viewBox="0 0 0.49 0.49"
 xmlns:xlink="http://www.w3.org/1999/xlink">
 <defs>
  <style type="text/css">
   <![CDATA[
    .fil0 {fill:#FEFEFE}
   ]]>
  </style>
 </defs>
 <g id="Layer_x0020_1">
  <metadata id="CorelCorpID_0Corel-Layer"/>
  <g id="_1428029071296">
   <path class="fil0" d="M0.34 0l-0.18 0c-0.08,0 -0.15,0.07 -0.15,0.15l0 0.18c0,0.08 0.07,0.15 0.15,0.15l0.18 0c0.08,0 0.15,-0.07 0.15,-0.15l0 -0.18c0,-0.08 -0.07,-0.15 -0.15,-0.15zm0.11 0.34c0,0.06 -0.05,0.11 -0.11,0.11l-0.18 0c-0.06,0 -0.11,-0.05 -0.11,-0.11l0 -0.18c0,-0.06 0.05,-0.11 0.11,-0.11l0.18 0c0.06,0 0.11,0.05 0.11,0.11l0 0.18z"/>
   <path class="fil0" d="M0.25 0.12c-0.07,0 -0.12,0.06 -0.12,0.12 0,0.07 0.06,0.12 0.12,0.12 0.07,0 0.12,-0.06 0.12,-0.12 0,-0.07 -0.06,-0.12 -0.12,-0.12zm0 0.2c-0.04,0 -0.08,-0.03 -0.08,-0.08 0,-0.04 0.03,-0.08 0.08,-0.08 0.04,0 0.08,0.03 0.08,0.08 0,0.04 -0.03,0.08 -0.08,0.08z"/>
   <circle class="fil0" cx="0.38" cy="0.11" r="0.02"/>
   <g>
   </g>
   <g>
   </g>
   <g>
   </g>
   <g>
   </g>
   <g>
   </g>
   <g>
   </g>
   <g>
   </g>
   <g>
   </g>
   <g>
   </g>
   <g>
   </g>
   <g>
   </g>
   <g>
   </g>
   <g>
   </g>
   <g>
   </g>
   <g>
   </g>
  </g>
 </g>
</svg>
