<?xml version="1.0" encoding="UTF-8"?>
<!DOCTYPE svg PUBLIC "-//W3C//DTD SVG 1.1//EN" "http://www.w3.org/Graphics/SVG/1.1/DTD/svg11.dtd">
<!-- Creator: CorelDRAW 2018 (64-Bit) -->
<svg xmlns="http://www.w3.org/2000/svg" xml:space="preserve" width="0.382287in" height="0.543697in" version="1.1" style="shape-rendering:geometricPrecision; text-rendering:geometricPrecision; image-rendering:optimizeQuality; fill-rule:evenodd; clip-rule:evenodd"
viewBox="0 0 7.51 10.68"
 xmlns:xlink="http://www.w3.org/1999/xlink">
 <defs>
  <style type="text/css">
   <![CDATA[
    .fil0 {fill:#FEFEFE}
   ]]>
  </style>
 </defs>
 <g id="Layer_x0020_1">
  <metadata id="CorelCorpID_0Corel-Layer"/>
  <g id="_1815460322416">
   <g>
    <g>
     <path class="fil0" d="M3.75 0c-2.07,0 -3.75,1.68 -3.75,3.75 0,0.7 0.19,1.38 0.56,1.97l2.98 4.8c0.06,0.09 0.16,0.15 0.27,0.15 0,0 0,0 0,0 0.11,-0 0.21,-0.06 0.27,-0.15l2.9 -4.85c0.35,-0.58 0.53,-1.24 0.53,-1.92 0,-2.07 -1.68,-3.75 -3.75,-3.75zm2.69 5.36l-2.64 4.41 -2.71 -4.37c-0.31,-0.49 -0.47,-1.06 -0.47,-1.64 0,-1.72 1.41,-3.13 3.13,-3.13 1.72,0 3.13,1.41 3.13,3.13 0,0.57 -0.15,1.12 -0.44,1.6z"/>
    </g>
   </g>
   <g>
    <g>
     <path class="fil0" d="M3.75 1.88c-1.03,0 -1.88,0.84 -1.88,1.88 0,1.03 0.83,1.88 1.88,1.88 1.06,0 1.88,-0.86 1.88,-1.88 0,-1.03 -0.84,-1.88 -1.88,-1.88zm0 3.13c-0.69,0 -1.26,-0.56 -1.26,-1.26 0,-0.69 0.57,-1.26 1.26,-1.26 0.69,0 1.25,0.57 1.25,1.26 0,0.68 -0.55,1.26 -1.25,1.26z"/>
    </g>
   </g>
   <g>
   </g>
   <g>
   </g>
   <g>
   </g>
   <g>
   </g>
   <g>
   </g>
   <g>
   </g>
   <g>
   </g>
   <g>
   </g>
   <g>
   </g>
   <g>
   </g>
   <g>
   </g>
   <g>
   </g>
   <g>
   </g>
   <g>
   </g>
   <g>
   </g>
  </g>
 </g>
</svg>
