<?xml version="1.0" encoding="UTF-8"?>
<!DOCTYPE svg PUBLIC "-//W3C//DTD SVG 1.1//EN" "http://www.w3.org/Graphics/SVG/1.1/DTD/svg11.dtd">
<!-- Creator: CorelDRAW 2018 (64-Bit) -->
<svg xmlns="http://www.w3.org/2000/svg" xml:space="preserve" width="0.0854409in" height="0.0854409in" version="1.1" style="shape-rendering:geometricPrecision; text-rendering:geometricPrecision; image-rendering:optimizeQuality; fill-rule:evenodd; clip-rule:evenodd"
viewBox="0 0 0.4 0.4"
 xmlns:xlink="http://www.w3.org/1999/xlink"
 enable-background="new 0 0 24 24">
 <defs>
  <style type="text/css">
   <![CDATA[
    .fil0 {fill:#FEFEFE}
   ]]>
  </style>
 </defs>
 <g id="Layer_x0020_1">
  <metadata id="CorelCorpID_0Corel-Layer"/>
  <g id="_1815454342976">
   <path class="fil0" d="M0.3 0.28c-0.05,-0.04 -0.12,-0.04 -0.2,-0.03 -0.02,0 -0.01,0.03 0.01,0.02 0.13,-0.03 0.18,0.02 0.19,0.02 0.01,0 0.02,-0.02 0.01,-0.02z"/>
   <path class="fil0" d="M0.09 0.22c0.07,-0.02 0.15,-0.01 0.21,0.03 0.01,0.01 0.03,-0.01 0.01,-0.02 -0.06,-0.04 -0.15,-0.05 -0.23,-0.03 -0.02,0 -0.01,0.03 0.01,0.02l0 0z"/>
   <path class="fil0" d="M0.08 0.15c0.08,-0.02 0.18,-0.01 0.24,0.03 0.01,0.01 0.03,-0.01 0.01,-0.02 -0.07,-0.04 -0.18,-0.06 -0.26,-0.03 -0.02,0 -0.01,0.03 0.01,0.02z"/>
   <path class="fil0" d="M0.2 0.4c0.11,0 0.2,-0.09 0.2,-0.2 0,-0.11 -0.09,-0.2 -0.2,-0.2 -0.11,0 -0.2,0.09 -0.2,0.2 0,0.11 0.09,0.2 0.2,0.2zm0 -0.38c0.1,0 0.18,0.08 0.18,0.18 0,0.1 -0.08,0.18 -0.18,0.18 -0.1,0 -0.18,-0.08 -0.18,-0.18 0,-0.1 0.08,-0.18 0.18,-0.18z"/>
  </g>
 </g>
</svg>
