<?xml version="1.0" encoding="UTF-8"?>
<!DOCTYPE svg PUBLIC "-//W3C//DTD SVG 1.1//EN" "http://www.w3.org/Graphics/SVG/1.1/DTD/svg11.dtd">
<!-- Creator: CorelDRAW 2018 (64-Bit) -->
<svg xmlns="http://www.w3.org/2000/svg" xml:space="preserve" width="0.085563in" height="0.085563in" version="1.1" style="shape-rendering:geometricPrecision; text-rendering:geometricPrecision; image-rendering:optimizeQuality; fill-rule:evenodd; clip-rule:evenodd"
viewBox="0 0 0.4 0.4"
 xmlns:xlink="http://www.w3.org/1999/xlink">
 <defs>
  <style type="text/css">
   <![CDATA[
    .fil0 {fill:#FEFEFE}
   ]]>
  </style>
 </defs>
 <g id="Layer_x0020_1">
  <metadata id="CorelCorpID_0Corel-Layer"/>
  <g id="_1392354159520">
   <g>
    <g>
     <g>
      <path class="fil0" d="M0.3 0l-0.19 0c-0.06,0 -0.11,0.05 -0.11,0.11l0 0.19c0,0.06 0.05,0.11 0.11,0.11l0.19 0c0.06,0 0.11,-0.05 0.11,-0.11l0 -0.19c0,-0.06 -0.05,-0.11 -0.11,-0.11zm0.08 0.3c0,0.05 -0.04,0.08 -0.08,0.08l-0.19 0c-0.05,0 -0.08,-0.04 -0.08,-0.08l0 -0.19c0,-0.05 0.04,-0.08 0.08,-0.08l0.19 0c0.05,0 0.08,0.04 0.08,0.08l0 0.19z"/>
      <path class="fil0" d="M0.33 0.1c-0,-0 -0.01,-0 -0.01,-0 -0,0 -0.01,0 -0.02,0 -0,0 -0,0 -0,0 -0.01,-0.01 -0.03,-0.01 -0.04,-0.01 -0.03,0 -0.06,0.03 -0.06,0.06 -0.03,-0.01 -0.06,-0.02 -0.08,-0.04 -0,-0 -0.01,-0.01 -0.01,-0 -0,0 -0.01,0 -0.01,0.01 -0,0 -0.01,0.02 -0.01,0.06 0,0.04 0.03,0.07 0.05,0.08 -0.01,0.01 -0.03,0.01 -0.05,0.01 -0.01,-0 -0.01,0 -0.01,0.01 -0,0.01 0,0.01 0.01,0.02 0.02,0.02 0.05,0.02 0.08,0.02 0.09,0 0.15,-0.07 0.15,-0.15 0,-0 0.01,-0.01 0.02,-0.02 0,-0.01 0.01,-0.02 0.01,-0.02 0,-0.01 -0,-0.01 -0.01,-0.01zm-0.04 0.05c-0,0 -0,0 -0,0.01 0,0.05 -0.04,0.12 -0.13,0.12 -0.01,0 -0.02,-0 -0.02,-0 0.01,-0 0.02,-0.01 0.03,-0.02 0,-0 0.01,-0.01 0.01,-0.01 -0,-0 -0,-0.01 -0.01,-0.01 -0,-0 -0.06,-0.03 -0.06,-0.07 0,-0.01 0,-0.02 0,-0.03 0.03,0.02 0.06,0.04 0.09,0.04 0,0 0,0 0,0 0.01,-0 0.01,-0.01 0.01,-0.01 0,-0 -0,-0 -0,-0.01 -0,-0 -0,-0 -0,-0.01 0,-0.02 0.02,-0.04 0.04,-0.04 0.01,0 0.02,0 0.03,0.01 0,0 0.01,0 0.01,0 0,-0 0.01,-0 0.01,-0 0,-0 0,-0 0,-0 -0.01,0.01 -0.01,0.02 -0.01,0.02z"/>
     </g>
    </g>
   </g>
   <g>
   </g>
   <g>
   </g>
   <g>
   </g>
   <g>
   </g>
   <g>
   </g>
   <g>
   </g>
   <g>
   </g>
   <g>
   </g>
   <g>
   </g>
   <g>
   </g>
   <g>
   </g>
   <g>
   </g>
   <g>
   </g>
   <g>
   </g>
   <g>
   </g>
  </g>
 </g>
</svg>
