<?xml version="1.0" encoding="UTF-8"?>
<!DOCTYPE svg PUBLIC "-//W3C//DTD SVG 1.1//EN" "http://www.w3.org/Graphics/SVG/1.1/DTD/svg11.dtd">
<!-- Creator: CorelDRAW 2018 (64-Bit) -->
<svg xmlns="http://www.w3.org/2000/svg" xml:space="preserve" width="0.0880787in" height="0.0808937in" version="1.1" style="shape-rendering:geometricPrecision; text-rendering:geometricPrecision; image-rendering:optimizeQuality; fill-rule:evenodd; clip-rule:evenodd"
viewBox="0 0 0.43 0.39"
 xmlns:xlink="http://www.w3.org/1999/xlink">
 <defs>
  <style type="text/css">
   <![CDATA[
    .fil0 {fill:#FEFEFE}
   ]]>
  </style>
 </defs>
 <g id="Layer_x0020_1">
  <metadata id="CorelCorpID_0Corel-Layer"/>
  <g id="_1392353363648">
   <path class="fil0" d="M0.28 0.17l-0.09 -0.06c-0.01,-0 -0.01,-0 -0.02,0 -0.01,0 -0.01,0.01 -0.01,0.02l0 0.12c0,0.01 0,0.01 0.01,0.02 0,0 0.01,0 0.01,0 0,0 0.01,-0 0.01,-0l0.09 -0.06c0.01,-0 0.01,-0.01 0.01,-0.02 0,-0.01 -0,-0.01 -0.01,-0.02l0 0zm-0.1 0.06l0 -0.09 0.07 0.05 -0.07 0.05zm0 0z"/>
   <path class="fil0" d="M0.42 0.09l-0 -0c-0,-0 -0,-0.04 -0.02,-0.06 -0.02,-0.02 -0.04,-0.02 -0.05,-0.03 -0,-0 -0,-0 -0,-0l-0 -0c-0.06,-0 -0.14,-0.01 -0.14,-0.01l-0 0 -0 0c-0,0 -0.09,0 -0.14,0.01l-0 0c-0,0 -0,0 -0,0 -0.01,0 -0.03,0 -0.05,0.03 -0.01,0.02 -0.02,0.05 -0.02,0.06l-0 0c-0,0 -0,0.04 -0,0.08l0 0.04c0,0.04 0,0.08 0,0.08l0 0c0,0 0,0.04 0.02,0.06 0.02,0.02 0.04,0.02 0.05,0.03 0,0 0,0 0,0l0 0c0.03,0 0.13,0.01 0.14,0.01l0 0 0 0c0,-0 0.09,-0 0.14,-0.01l0 -0c0,-0 0,-0 0,-0 0.01,-0 0.03,-0 0.05,-0.03 0.01,-0.02 0.02,-0.05 0.02,-0.06l0 -0c0,-0 0,-0.04 0,-0.08l0 -0.04c0,-0.04 -0,-0.08 -0,-0.08l0 0zm-0.02 0.12c0,0.04 -0,0.08 -0,0.08 -0,0.01 -0.01,0.03 -0.01,0.04 -0.01,0.01 -0.02,0.02 -0.03,0.02 -0,0 -0,0 -0,0 -0.05,0 -0.14,0.01 -0.14,0.01 -0,-0 -0.11,-0 -0.14,-0.01 -0,-0 -0,-0 -0.01,-0 -0.01,-0 -0.02,-0 -0.03,-0.02l-0 -0c-0.01,-0.01 -0.01,-0.03 -0.01,-0.04 -0,-0 -0,-0.04 -0,-0.08l0 -0.04c0,-0.04 0,-0.08 0,-0.08 0,-0.01 0.01,-0.03 0.01,-0.04 0.01,-0.01 0.02,-0.02 0.03,-0.02 0,-0 0,-0 0,-0 0.06,-0 0.14,-0.01 0.14,-0.01 0,0 0.09,0 0.14,0.01 0,0 0,0 0,0 0.01,0 0.02,0 0.03,0.02l0 0c0.01,0.01 0.01,0.03 0.01,0.04 0,0 0,0.04 0,0.08l0 0.04zm0 0z"/>
  </g>
 </g>
</svg>
